<?xml version="1.0" encoding="UTF-8" standalone="no"?>
<svg
   version="1.1"
   width="5.4499998cm"
   height="4.4000001cm"
   viewBox="0 0 54499999 44000003"
   id="svg654"
   sodipodi:docname="DRV8428P-D11C-NEMA17-F_Cu.svg"
   inkscape:version="1.1 (c68e22c387, 2021-05-23)"
   xmlns:inkscape="http://www.inkscape.org/namespaces/inkscape"
   xmlns:sodipodi="http://sodipodi.sourceforge.net/DTD/sodipodi-0.dtd"
   xmlns="http://www.w3.org/2000/svg"
   xmlns:svg="http://www.w3.org/2000/svg"
   xmlns:rdf="http://www.w3.org/1999/02/22-rdf-syntax-ns#"
   xmlns:cc="http://creativecommons.org/ns#"
   xmlns:dc="http://purl.org/dc/elements/1.1/">
  <defs
     id="defs658" />
  <sodipodi:namedview
     id="namedview656"
     pagecolor="#ffffff"
     bordercolor="#666666"
     borderopacity="1.0"
     inkscape:pageshadow="2"
     inkscape:pageopacity="0.0"
     inkscape:pagecheckerboard="0"
     inkscape:document-units="cm"
     showgrid="false"
     fit-margin-top="0"
     fit-margin-left="0"
     fit-margin-right="0"
     fit-margin-bottom="0"
     inkscape:zoom="2.0719854"
     inkscape:cx="193.7755"
     inkscape:cy="72.635647"
     inkscape:window-width="1920"
     inkscape:window-height="1017"
     inkscape:window-x="-8"
     inkscape:window-y="-8"
     inkscape:window-maximized="1"
     inkscape:current-layer="svg654" />
  <title
     id="title2">SVG Picture created as DRV8428P-D11C-NEMA17-F_Cu.svg date 2022/01/25 16:10:18 </title>
  <desc
     id="desc4">Picture generated by PCBNEW </desc>
  <g
     style="fill:#000000;fill-opacity:1;stroke:#000000;stroke-linecap:round;stroke-linejoin:round;stroke-opacity:1"
     id="g6"
     transform="translate(-13136905,-30000)" />
  <g
     id="g8"
     transform="translate(-13136905,-30000)"
     style="fill:#000000;fill-opacity:0;stroke:#000000;stroke-width:0;stroke-linecap:round;stroke-linejoin:round;stroke-opacity:1" />
  <g
     style="fill:#000000;fill-opacity:0;stroke:#000000;stroke-width:1;stroke-linecap:round;stroke-linejoin:round;stroke-opacity:1"
     id="g10"
     transform="translate(-13136905,-30000)" />
  <g
     style="fill:#000000;fill-opacity:1;stroke:#000000;stroke-width:1;stroke-linecap:round;stroke-linejoin:round;stroke-opacity:1"
     id="g20"
     transform="translate(-13136905,-30000)">
    <path
       style="fill:#000000;fill-opacity:1;fill-rule:evenodd;stroke:#000000;stroke-width:1;stroke-linecap:round;stroke-linejoin:round;stroke-opacity:1"
       d="m 56636905,18230000 8046,-69015 44420,-100475 77612,-77748 100398,-44595 69524,-8167 h 8400000 l 69015,8046 100475,44420 77748,77612 44595,100398 8167,69524 v 600000 l -8046,69015 -44420,100475 -77612,77748 -100398,44595 -69524,8167 h -8400000 l -69015,-8046 -100475,-44420 -77748,-77612 -44595,-100398 -8167,-69524 z"
       id="path12" />
    <path
       style="fill:#000000;fill-opacity:1;fill-rule:evenodd;stroke:#000000;stroke-width:1;stroke-linecap:round;stroke-linejoin:round;stroke-opacity:1"
       d="m 56636905,20730000 8046,-69015 44420,-100475 77612,-77748 100398,-44595 69524,-8167 h 7400000 l 69015,8046 100475,44420 77748,77612 44595,100398 8167,69524 v 600000 l -8046,69015 -44420,100475 -77612,77748 -100398,44595 -69524,8167 h -7400000 l -69015,-8046 -100475,-44420 -77748,-77612 -44595,-100398 -8167,-69524 z"
       id="path14" />
    <path
       style="fill:#000000;fill-opacity:1;fill-rule:evenodd;stroke:#000000;stroke-width:1;stroke-linecap:round;stroke-linejoin:round;stroke-opacity:1"
       d="m 56636905,22730000 8046,-69015 44420,-100475 77612,-77748 100398,-44595 69524,-8167 h 7400000 l 69015,8046 100475,44420 77748,77612 44595,100398 8167,69524 v 600000 l -8046,69015 -44420,100475 -77612,77748 -100398,44595 -69524,8167 h -7400000 l -69015,-8046 -100475,-44420 -77748,-77612 -44595,-100398 -8167,-69524 z"
       id="path16" />
    <path
       style="fill:#000000;fill-opacity:1;fill-rule:evenodd;stroke:#000000;stroke-width:1;stroke-linecap:round;stroke-linejoin:round;stroke-opacity:1"
       d="m 56636905,25230000 8046,-69015 44420,-100475 77612,-77748 100398,-44595 69524,-8167 h 8400000 l 69015,8046 100475,44420 77748,77612 44595,100398 8167,69524 v 600000 l -8046,69015 -44420,100475 -77612,77748 -100398,44595 -69524,8167 h -8400000 l -69015,-8046 -100475,-44420 -77748,-77612 -44595,-100398 -8167,-69524 z"
       id="path18" />
  </g>
  <g
     id="g22"
     transform="translate(-13136905,-30000)"
     style="fill:#000000;fill-opacity:0;stroke:#000000;stroke-width:0;stroke-linecap:round;stroke-linejoin:round;stroke-opacity:1" />
  <g
     style="fill:#000000;fill-opacity:1;stroke:#000000;stroke-width:1;stroke-linecap:round;stroke-linejoin:round;stroke-opacity:1"
     id="g28"
     transform="translate(-13136905,-30000)">
    <path
       style="fill:#000000;fill-opacity:1;fill-rule:evenodd;stroke:#000000;stroke-width:1;stroke-linecap:round;stroke-linejoin:round;stroke-opacity:1"
       d="M 25236906,8479999 V 5980001 h 3999998 v 2499998 z"
       id="path24" />
    <path
       style="fill:#000000;fill-opacity:1;fill-rule:evenodd;stroke:#000000;stroke-width:1;stroke-linecap:round;stroke-linejoin:round;stroke-opacity:1"
       d="M 34236906,8479999 V 5980001 h 3999998 v 2499998 z"
       id="path26" />
  </g>
  <g
     id="g30"
     transform="translate(-13136905,-30000)"
     style="fill:#000000;fill-opacity:0;stroke:#000000;stroke-width:0;stroke-linecap:round;stroke-linejoin:round;stroke-opacity:1" />
  <g
     style="fill:#000000;fill-opacity:1;stroke:#000000;stroke-width:1;stroke-linecap:round;stroke-linejoin:round;stroke-opacity:1"
     id="g36"
     transform="translate(-13136905,-30000)">
    <path
       style="fill:#000000;fill-opacity:1;fill-rule:evenodd;stroke:#000000;stroke-width:1;stroke-linecap:round;stroke-linejoin:round;stroke-opacity:1"
       d="M 44236906,7079999 V 5380001 h 1999998 v 1699998 z"
       id="path32" />
    <path
       style="fill:#000000;fill-opacity:1;fill-rule:evenodd;stroke:#000000;stroke-width:1;stroke-linecap:round;stroke-linejoin:round;stroke-opacity:1"
       d="M 40236906,7079999 V 5380001 h 1999998 v 1699998 z"
       id="path34" />
  </g>
  <g
     id="g38"
     transform="translate(-13136905,-30000)"
     style="fill:#000000;fill-opacity:0;stroke:#000000;stroke-width:0;stroke-linecap:round;stroke-linejoin:round;stroke-opacity:1" />
  <g
     style="fill:#000000;fill-opacity:1;stroke:#000000;stroke-width:1;stroke-linecap:round;stroke-linejoin:round;stroke-opacity:1"
     id="g44"
     transform="translate(-13136905,-30000)">
    <path
       style="fill:#000000;fill-opacity:1;fill-rule:evenodd;stroke:#000000;stroke-width:1;stroke-linecap:round;stroke-linejoin:round;stroke-opacity:1"
       d="m 45836904,31380001 v 1699998 h -1999998 v -1699998 z"
       id="path40" />
    <path
       style="fill:#000000;fill-opacity:1;fill-rule:evenodd;stroke:#000000;stroke-width:1;stroke-linecap:round;stroke-linejoin:round;stroke-opacity:1"
       d="m 49836904,31380001 v 1699998 h -1999998 v -1699998 z"
       id="path42" />
  </g>
  <g
     id="g46"
     transform="translate(-13136905,-30000)"
     style="fill:#000000;fill-opacity:0;stroke:#000000;stroke-width:0;stroke-linecap:round;stroke-linejoin:round;stroke-opacity:1" />
  <g
     style="fill:#000000;fill-opacity:1;stroke:#000000;stroke-width:1;stroke-linecap:round;stroke-linejoin:round;stroke-opacity:1"
     id="g52"
     transform="translate(-13136905,-30000)">
    <path
       style="fill:#000000;fill-opacity:1;fill-rule:evenodd;stroke:#000000;stroke-width:1;stroke-linecap:round;stroke-linejoin:round;stroke-opacity:1"
       d="m 26936906,34379999 v -1699998 h 1999998 v 1699998 z"
       id="path48" />
    <path
       style="fill:#000000;fill-opacity:1;fill-rule:evenodd;stroke:#000000;stroke-width:1;stroke-linecap:round;stroke-linejoin:round;stroke-opacity:1"
       d="m 22936906,34379999 v -1699998 h 1999998 v 1699998 z"
       id="path50" />
  </g>
  <g
     id="g54"
     transform="translate(-13136905,-30000)"
     style="fill:#000000;fill-opacity:0;stroke:#000000;stroke-width:0;stroke-linecap:round;stroke-linejoin:round;stroke-opacity:1" />
  <g
     style="fill:#000000;fill-opacity:1;stroke:#000000;stroke-width:1;stroke-linecap:round;stroke-linejoin:round;stroke-opacity:1"
     id="g90"
     transform="translate(-13136905,-30000)">
    <path
       style="fill:#000000;fill-opacity:1;fill-rule:evenodd;stroke:#000000;stroke-width:1;stroke-linecap:round;stroke-linejoin:round;stroke-opacity:1"
       d="m 29586906,14555001 h 1499998 v 399998 h -1499998 z"
       id="path56" />
    <path
       style="fill:#000000;fill-opacity:1;fill-rule:evenodd;stroke:#000000;stroke-width:1;stroke-linecap:round;stroke-linejoin:round;stroke-opacity:1"
       d="m 23786906,14555001 h 1499998 v 399998 h -1499998 z"
       id="path58" />
    <path
       style="fill:#000000;fill-opacity:1;fill-rule:evenodd;stroke:#000000;stroke-width:1;stroke-linecap:round;stroke-linejoin:round;stroke-opacity:1"
       d="m 29586906,15205001 h 1499998 v 399998 h -1499998 z"
       id="path60" />
    <path
       style="fill:#000000;fill-opacity:1;fill-rule:evenodd;stroke:#000000;stroke-width:1;stroke-linecap:round;stroke-linejoin:round;stroke-opacity:1"
       d="m 23786906,15205001 h 1499998 v 399998 h -1499998 z"
       id="path62" />
    <path
       style="fill:#000000;fill-opacity:1;fill-rule:evenodd;stroke:#000000;stroke-width:1;stroke-linecap:round;stroke-linejoin:round;stroke-opacity:1"
       d="m 29586906,15855001 h 1499998 v 399998 h -1499998 z"
       id="path64" />
    <path
       style="fill:#000000;fill-opacity:1;fill-rule:evenodd;stroke:#000000;stroke-width:1;stroke-linecap:round;stroke-linejoin:round;stroke-opacity:1"
       d="m 23786906,15855001 h 1499998 v 399998 h -1499998 z"
       id="path66" />
    <path
       style="fill:#000000;fill-opacity:1;fill-rule:evenodd;stroke:#000000;stroke-width:1;stroke-linecap:round;stroke-linejoin:round;stroke-opacity:1"
       d="m 29586906,16505001 h 1499998 v 399998 h -1499998 z"
       id="path68" />
    <path
       style="fill:#000000;fill-opacity:1;fill-rule:evenodd;stroke:#000000;stroke-width:1;stroke-linecap:round;stroke-linejoin:round;stroke-opacity:1"
       d="m 23786906,16505001 h 1499998 v 399998 h -1499998 z"
       id="path70" />
    <path
       style="fill:#000000;fill-opacity:1;fill-rule:evenodd;stroke:#000000;stroke-width:1;stroke-linecap:round;stroke-linejoin:round;stroke-opacity:1"
       d="m 29586906,17155001 h 1499998 v 399998 h -1499998 z"
       id="path72" />
    <path
       style="fill:#000000;fill-opacity:1;fill-rule:evenodd;stroke:#000000;stroke-width:1;stroke-linecap:round;stroke-linejoin:round;stroke-opacity:1"
       d="m 23786906,17155001 h 1499998 v 399998 h -1499998 z"
       id="path74" />
    <path
       style="fill:#000000;fill-opacity:1;fill-rule:evenodd;stroke:#000000;stroke-width:1;stroke-linecap:round;stroke-linejoin:round;stroke-opacity:1"
       d="m 29586906,17805001 h 1499998 v 399998 h -1499998 z"
       id="path76" />
    <path
       style="fill:#000000;fill-opacity:1;fill-rule:evenodd;stroke:#000000;stroke-width:1;stroke-linecap:round;stroke-linejoin:round;stroke-opacity:1"
       d="m 23786906,17805001 h 1499998 v 399998 h -1499998 z"
       id="path78" />
    <path
       style="fill:#000000;fill-opacity:1;fill-rule:evenodd;stroke:#000000;stroke-width:1;stroke-linecap:round;stroke-linejoin:round;stroke-opacity:1"
       d="m 29586906,18455001 h 1499998 v 399998 h -1499998 z"
       id="path80" />
    <path
       style="fill:#000000;fill-opacity:1;fill-rule:evenodd;stroke:#000000;stroke-width:1;stroke-linecap:round;stroke-linejoin:round;stroke-opacity:1"
       d="m 23786906,18455001 h 1499998 v 399998 h -1499998 z"
       id="path82" />
    <path
       style="fill:#000000;fill-opacity:1;fill-rule:evenodd;stroke:#000000;stroke-width:1;stroke-linecap:round;stroke-linejoin:round;stroke-opacity:1"
       d="m 29586906,19105001 h 1499998 v 399998 h -1499998 z"
       id="path84" />
    <path
       style="fill:#000000;fill-opacity:1;fill-rule:evenodd;stroke:#000000;stroke-width:1;stroke-linecap:round;stroke-linejoin:round;stroke-opacity:1"
       d="m 23786906,19105001 h 1499998 v 399998 h -1499998 z"
       id="path86" />
    <path
       style="fill:#000000;fill-opacity:1;fill-rule:evenodd;stroke:#000000;stroke-width:1;stroke-linecap:round;stroke-linejoin:round;stroke-opacity:1"
       d="m 26281906,15800001 h 2309998 v 2459998 h -2309998 z"
       id="path88" />
  </g>
  <g
     id="g92"
     transform="translate(-13136905,-30000)"
     style="fill:#000000;fill-opacity:0;stroke:#000000;stroke-width:0;stroke-linecap:round;stroke-linejoin:round;stroke-opacity:1" />
  <g
     style="fill:#000000;fill-opacity:1;stroke:#000000;stroke-width:1;stroke-linecap:round;stroke-linejoin:round;stroke-opacity:1"
     id="g98"
     transform="translate(-13136905,-30000)">
    <path
       style="fill:#000000;fill-opacity:1;fill-rule:evenodd;stroke:#000000;stroke-width:1;stroke-linecap:round;stroke-linejoin:round;stroke-opacity:1"
       d="m 41736904,8680001 v 1699998 H 39736906 V 8680001 Z"
       id="path94" />
    <path
       style="fill:#000000;fill-opacity:1;fill-rule:evenodd;stroke:#000000;stroke-width:1;stroke-linecap:round;stroke-linejoin:round;stroke-opacity:1"
       d="m 45736904,8680001 v 1699998 H 43736906 V 8680001 Z"
       id="path96" />
  </g>
  <g
     id="g100"
     transform="translate(-13136905,-30000)"
     style="fill:#000000;fill-opacity:0;stroke:#000000;stroke-width:0;stroke-linecap:round;stroke-linejoin:round;stroke-opacity:1" />
  <g
     style="fill:#000000;fill-opacity:1;stroke:#000000;stroke-width:1;stroke-linecap:round;stroke-linejoin:round;stroke-opacity:1"
     id="g110"
     transform="translate(-13136905,-30000)">
    <path
       style="fill:#000000;fill-opacity:1;fill-rule:evenodd;stroke:#000000;stroke-width:1;stroke-linecap:round;stroke-linejoin:round;stroke-opacity:1"
       d="m 21686904,26380001 v 1699998 h -2499998 v -1699998 z"
       id="path102" />
    <path
       style="fill:#000000;fill-opacity:1;fill-rule:evenodd;stroke:#000000;stroke-width:1;stroke-linecap:round;stroke-linejoin:round;stroke-opacity:1"
       d="m 21686904,23840001 v 1699998 h -2499998 v -1699998 z"
       id="path104" />
    <path
       style="fill:#000000;fill-opacity:1;fill-rule:evenodd;stroke:#000000;stroke-width:1;stroke-linecap:round;stroke-linejoin:round;stroke-opacity:1"
       d="m 21686904,21300001 v 1699998 h -2499998 v -1699998 z"
       id="path106" />
    <path
       style="fill:#000000;fill-opacity:1;fill-rule:evenodd;stroke:#000000;stroke-width:1;stroke-linecap:round;stroke-linejoin:round;stroke-opacity:1"
       d="m 21686904,18760001 v 1699998 h -2499998 v -1699998 z"
       id="path108" />
  </g>
  <g
     id="g112"
     transform="translate(-13136905,-30000)"
     style="fill:#000000;fill-opacity:0;stroke:#000000;stroke-width:0;stroke-linecap:round;stroke-linejoin:round;stroke-opacity:1" />
  <g
     style="fill:#000000;fill-opacity:1;stroke:#000000;stroke-width:1;stroke-linecap:round;stroke-linejoin:round;stroke-opacity:1"
     id="g122"
     transform="translate(-13136905,-30000)">
    <path
       style="fill:#000000;fill-opacity:1;fill-rule:evenodd;stroke:#000000;stroke-width:1;stroke-linecap:round;stroke-linejoin:round;stroke-opacity:1"
       d="m 42406906,19430001 h 999998 v 3149998 h -999998 z"
       id="path114" />
    <path
       style="fill:#000000;fill-opacity:1;fill-rule:evenodd;stroke:#000000;stroke-width:1;stroke-linecap:round;stroke-linejoin:round;stroke-opacity:1"
       d="m 42406906,24480001 h 999998 v 3149998 h -999998 z"
       id="path116" />
    <path
       style="fill:#000000;fill-opacity:1;fill-rule:evenodd;stroke:#000000;stroke-width:1;stroke-linecap:round;stroke-linejoin:round;stroke-opacity:1"
       d="m 39866906,19430001 h 999998 v 3149998 h -999998 z"
       id="path118" />
    <path
       style="fill:#000000;fill-opacity:1;fill-rule:evenodd;stroke:#000000;stroke-width:1;stroke-linecap:round;stroke-linejoin:round;stroke-opacity:1"
       d="m 39866906,24480001 h 999998 v 3149998 h -999998 z"
       id="path120" />
  </g>
  <g
     id="g124"
     transform="translate(-13136905,-30000)"
     style="fill:#000000;fill-opacity:0;stroke:#000000;stroke-width:0;stroke-linecap:round;stroke-linejoin:round;stroke-opacity:1" />
  <g
     style="fill:#000000;fill-opacity:1;stroke:#000000;stroke-width:1;stroke-linecap:round;stroke-linejoin:round;stroke-opacity:1"
     id="g130"
     transform="translate(-13136905,-30000)">
    <path
       style="fill:#000000;fill-opacity:1;fill-rule:evenodd;stroke:#000000;stroke-width:1;stroke-linecap:round;stroke-linejoin:round;stroke-opacity:1"
       d="m 21686904,12930001 v 1699998 h -2499998 v -1699998 z"
       id="path126" />
    <path
       style="fill:#000000;fill-opacity:1;fill-rule:evenodd;stroke:#000000;stroke-width:1;stroke-linecap:round;stroke-linejoin:round;stroke-opacity:1"
       d="m 21686904,10390001 v 1699998 h -2499998 v -1699998 z"
       id="path128" />
  </g>
  <g
     id="g132"
     transform="translate(-13136905,-30000)"
     style="fill:#000000;fill-opacity:0;stroke:#000000;stroke-width:0;stroke-linecap:round;stroke-linejoin:round;stroke-opacity:1" />
  <g
     style="fill:#000000;fill-opacity:1;stroke:#000000;stroke-width:1;stroke-linecap:round;stroke-linejoin:round;stroke-opacity:1"
     id="g140"
     transform="translate(-13136905,-30000)">
    <path
       style="fill:#000000;fill-opacity:1;fill-rule:evenodd;stroke:#000000;stroke-width:1;stroke-linecap:round;stroke-linejoin:round;stroke-opacity:1"
       d="m 27336906,24929999 v -1899998 h 1999998 v 1899998 z"
       id="path134" />
    <path
       style="fill:#000000;fill-opacity:1;fill-rule:evenodd;stroke:#000000;stroke-width:1;stroke-linecap:round;stroke-linejoin:round;stroke-opacity:1"
       d="m 28846906,30229999 v -1499998 h 1299998 v 1499998 z"
       id="path136" />
    <path
       style="fill:#000000;fill-opacity:1;fill-rule:evenodd;stroke:#000000;stroke-width:1;stroke-linecap:round;stroke-linejoin:round;stroke-opacity:1"
       d="m 26536906,30229999 v -1499998 h 1299998 v 1499998 z"
       id="path138" />
  </g>
  <g
     id="g142"
     transform="translate(-13136905,-30000)"
     style="fill:#000000;fill-opacity:0;stroke:#000000;stroke-width:0;stroke-linecap:round;stroke-linejoin:round;stroke-opacity:1" />
  <g
     style="fill:#000000;fill-opacity:1;stroke:#000000;stroke-width:1;stroke-linecap:round;stroke-linejoin:round;stroke-opacity:1"
     id="g148"
     transform="translate(-13136905,-30000)">
    <path
       style="fill:#000000;fill-opacity:1;fill-rule:evenodd;stroke:#000000;stroke-width:1;stroke-linecap:round;stroke-linejoin:round;stroke-opacity:1"
       d="M 53636906,11379999 V 9680001 h 1999998 v 1699998 z"
       id="path144" />
    <path
       style="fill:#000000;fill-opacity:1;fill-rule:evenodd;stroke:#000000;stroke-width:1;stroke-linecap:round;stroke-linejoin:round;stroke-opacity:1"
       d="M 49636906,11379999 V 9680001 h 1999998 v 1699998 z"
       id="path146" />
  </g>
  <g
     id="g150"
     transform="translate(-13136905,-30000)"
     style="fill:#000000;fill-opacity:0;stroke:#000000;stroke-width:0;stroke-linecap:round;stroke-linejoin:round;stroke-opacity:1" />
  <g
     style="fill:#000000;fill-opacity:1;stroke:#000000;stroke-width:1;stroke-linecap:round;stroke-linejoin:round;stroke-opacity:1"
     id="g156"
     transform="translate(-13136905,-30000)">
    <path
       style="fill:#000000;fill-opacity:1;fill-rule:evenodd;stroke:#000000;stroke-width:1;stroke-linecap:round;stroke-linejoin:round;stroke-opacity:1"
       d="m 34436906,34379999 v -1699998 h 1999998 v 1699998 z"
       id="path152" />
    <path
       style="fill:#000000;fill-opacity:1;fill-rule:evenodd;stroke:#000000;stroke-width:1;stroke-linecap:round;stroke-linejoin:round;stroke-opacity:1"
       d="m 30436906,34379999 v -1699998 h 1999998 v 1699998 z"
       id="path154" />
  </g>
  <g
     id="g158"
     transform="translate(-13136905,-30000)"
     style="fill:#000000;fill-opacity:0;stroke:#000000;stroke-width:0;stroke-linecap:round;stroke-linejoin:round;stroke-opacity:1" />
  <g
     style="fill:#000000;fill-opacity:1;stroke:#000000;stroke-width:1;stroke-linecap:round;stroke-linejoin:round;stroke-opacity:1"
     id="g164"
     transform="translate(-13136905,-30000)">
    <path
       style="fill:#000000;fill-opacity:1;fill-rule:evenodd;stroke:#000000;stroke-width:1;stroke-linecap:round;stroke-linejoin:round;stroke-opacity:1"
       d="m 39836906,12779999 v -1699998 h 1999998 v 1699998 z"
       id="path160" />
    <path
       style="fill:#000000;fill-opacity:1;fill-rule:evenodd;stroke:#000000;stroke-width:1;stroke-linecap:round;stroke-linejoin:round;stroke-opacity:1"
       d="m 43836906,12779999 v -1699998 h 1999998 v 1699998 z"
       id="path162" />
  </g>
  <g
     id="g166"
     transform="translate(-13136905,-30000)"
     style="fill:#000000;fill-opacity:0;stroke:#000000;stroke-width:0;stroke-linecap:round;stroke-linejoin:round;stroke-opacity:1" />
  <g
     style="fill:#000000;fill-opacity:1;stroke:#000000;stroke-width:1;stroke-linecap:round;stroke-linejoin:round;stroke-opacity:1"
     id="g196"
     transform="translate(-13136905,-30000)">
    <path
       style="fill:#000000;fill-opacity:1;fill-rule:evenodd;stroke:#000000;stroke-width:1;stroke-linecap:round;stroke-linejoin:round;stroke-opacity:1"
       d="m 54146906,20055001 h 599998 v 1999998 h -599998 z"
       id="path168" />
    <path
       style="fill:#000000;fill-opacity:1;fill-rule:evenodd;stroke:#000000;stroke-width:1;stroke-linecap:round;stroke-linejoin:round;stroke-opacity:1"
       d="m 52876906,20055001 h 599998 v 1999998 h -599998 z"
       id="path170" />
    <path
       style="fill:#000000;fill-opacity:1;fill-rule:evenodd;stroke:#000000;stroke-width:1;stroke-linecap:round;stroke-linejoin:round;stroke-opacity:1"
       d="m 51606906,20055001 h 599998 v 1999998 h -599998 z"
       id="path172" />
    <path
       style="fill:#000000;fill-opacity:1;fill-rule:evenodd;stroke:#000000;stroke-width:1;stroke-linecap:round;stroke-linejoin:round;stroke-opacity:1"
       d="m 50336906,20055001 h 599998 v 1999998 h -599998 z"
       id="path174" />
    <path
       style="fill:#000000;fill-opacity:1;fill-rule:evenodd;stroke:#000000;stroke-width:1;stroke-linecap:round;stroke-linejoin:round;stroke-opacity:1"
       d="m 49066906,20055001 h 599998 v 1999998 h -599998 z"
       id="path176" />
    <path
       style="fill:#000000;fill-opacity:1;fill-rule:evenodd;stroke:#000000;stroke-width:1;stroke-linecap:round;stroke-linejoin:round;stroke-opacity:1"
       d="m 47796906,20055001 h 599998 v 1999998 h -599998 z"
       id="path178" />
    <path
       style="fill:#000000;fill-opacity:1;fill-rule:evenodd;stroke:#000000;stroke-width:1;stroke-linecap:round;stroke-linejoin:round;stroke-opacity:1"
       d="m 46526906,20055001 h 599998 v 1999998 h -599998 z"
       id="path180" />
    <path
       style="fill:#000000;fill-opacity:1;fill-rule:evenodd;stroke:#000000;stroke-width:1;stroke-linecap:round;stroke-linejoin:round;stroke-opacity:1"
       d="m 46526906,25005001 h 599998 v 1999998 h -599998 z"
       id="path182" />
    <path
       style="fill:#000000;fill-opacity:1;fill-rule:evenodd;stroke:#000000;stroke-width:1;stroke-linecap:round;stroke-linejoin:round;stroke-opacity:1"
       d="m 47796906,25005001 h 599998 v 1999998 h -599998 z"
       id="path184" />
    <path
       style="fill:#000000;fill-opacity:1;fill-rule:evenodd;stroke:#000000;stroke-width:1;stroke-linecap:round;stroke-linejoin:round;stroke-opacity:1"
       d="m 49066906,25005001 h 599998 v 1999998 h -599998 z"
       id="path186" />
    <path
       style="fill:#000000;fill-opacity:1;fill-rule:evenodd;stroke:#000000;stroke-width:1;stroke-linecap:round;stroke-linejoin:round;stroke-opacity:1"
       d="m 50336906,25005001 h 599998 v 1999998 h -599998 z"
       id="path188" />
    <path
       style="fill:#000000;fill-opacity:1;fill-rule:evenodd;stroke:#000000;stroke-width:1;stroke-linecap:round;stroke-linejoin:round;stroke-opacity:1"
       d="m 51606906,25005001 h 599998 v 1999998 h -599998 z"
       id="path190" />
    <path
       style="fill:#000000;fill-opacity:1;fill-rule:evenodd;stroke:#000000;stroke-width:1;stroke-linecap:round;stroke-linejoin:round;stroke-opacity:1"
       d="m 52876906,25005001 h 599998 v 1999998 h -599998 z"
       id="path192" />
    <path
       style="fill:#000000;fill-opacity:1;fill-rule:evenodd;stroke:#000000;stroke-width:1;stroke-linecap:round;stroke-linejoin:round;stroke-opacity:1"
       d="m 54146906,25005001 h 599998 v 1999998 h -599998 z"
       id="path194" />
  </g>
  <g
     id="g198"
     transform="translate(-13136905,-30000)"
     style="fill:#000000;fill-opacity:0;stroke:#000000;stroke-width:0;stroke-linecap:round;stroke-linejoin:round;stroke-opacity:1" />
  <g
     style="fill:#000000;fill-opacity:1;stroke:#000000;stroke-width:1;stroke-linecap:round;stroke-linejoin:round;stroke-opacity:1"
     id="g206"
     transform="translate(-13136905,-30000)">
    <path
       style="fill:#000000;fill-opacity:1;fill-rule:evenodd;stroke:#000000;stroke-width:1;stroke-linecap:round;stroke-linejoin:round;stroke-opacity:1"
       d="m 44136906,36630001 h 999998 v 1799998 h -999998 z"
       id="path200" />
    <path
       style="fill:#000000;fill-opacity:1;fill-rule:evenodd;stroke:#000000;stroke-width:1;stroke-linecap:round;stroke-linejoin:round;stroke-opacity:1"
       d="m 43286906,34230001 h 999998 v 1799998 h -999998 z"
       id="path202" />
    <path
       style="fill:#000000;fill-opacity:1;fill-rule:evenodd;stroke:#000000;stroke-width:1;stroke-linecap:round;stroke-linejoin:round;stroke-opacity:1"
       d="m 44986906,34230001 h 999998 v 1799998 h -999998 z"
       id="path204" />
  </g>
  <g
     id="g208"
     transform="translate(-13136905,-30000)"
     style="fill:#000000;fill-opacity:0;stroke:#000000;stroke-width:0;stroke-linecap:round;stroke-linejoin:round;stroke-opacity:1" />
  <g
     id="g210"
     transform="translate(-13136905,-30000)"
     style="fill:#000000;fill-opacity:0;stroke:#000000;stroke-width:0;stroke-linecap:round;stroke-linejoin:round;stroke-opacity:1" />
  <g
     style="fill:#000000;fill-opacity:1;stroke:#000000;stroke-width:1;stroke-linecap:round;stroke-linejoin:round;stroke-opacity:1"
     id="g212"
     transform="translate(-13136905,-30000)" />
  <g
     style="fill:#000000;fill-opacity:1;stroke:#000000;stroke-width:400000;stroke-linecap:round;stroke-linejoin:round;stroke-opacity:1"
     id="g214"
     transform="translate(-13136905,-30000)" />
  <g
     style="fill:#000000;fill-opacity:0;stroke:#000000;stroke-width:400000;stroke-linecap:round;stroke-linejoin:round;stroke-opacity:1"
     id="g230"
     transform="translate(-13136905,-30000)">
    <path
       d="m 56236905,27030000 -1300000,1300000"
       id="path216" />
    <path
       d="m 56236905,25530000 v 1500000"
       id="path218" />
    <path
       d="m 50636905,24605000 v 1400000"
       id="path220" />
    <path
       d="m 50736416,24505489 -99511,99511"
       id="path222" />
    <path
       d="M 55212394,24505489 H 50736416"
       id="path224" />
    <path
       d="M 56236905,25530000 55212394,24505489"
       id="path226" />
    <path
       d="M 61136905,25530000 H 56236905"
       id="path228" />
  </g>
  <g
     style="fill:#000000;fill-opacity:0;stroke:#000000;stroke-width:300000;stroke-linecap:round;stroke-linejoin:round;stroke-opacity:1"
     id="g314"
     transform="translate(-13136905,-30000)">
    <path
       d="m 49366905,17710000 v 3345000"
       id="path232" />
    <path
       d="m 49011905,17355000 355000,355000"
       id="path234" />
    <path
       d="M 30336905,17355000 H 49011905"
       id="path236" />
    <path
       d="m 50636905,17430000 v 3625000"
       id="path238" />
    <path
       d="m 49911905,16705000 725000,725000"
       id="path240" />
    <path
       d="M 30336905,16705000 H 49911905"
       id="path242" />
    <path
       d="m 51906905,17300000 v 3755000"
       id="path244" />
    <path
       d="m 50661905,16055000 1245000,1245000"
       id="path246" />
    <path
       d="M 30336905,16055000 H 50661905"
       id="path248" />
    <path
       d="m 53176905,17417850 v 3637150"
       id="path250" />
    <path
       d="m 51164055,15405000 2012850,2012850"
       id="path252" />
    <path
       d="M 30336905,15405000 H 51164055"
       id="path254" />
    <path
       d="m 30336905,14755000 h 2675000"
       id="path256" />
    <path
       d="m 48386416,11879511 h 3750000"
       id="path258" />
    <path
       d="m 46036905,9530000 2349511,2349511"
       id="path260" />
    <path
       d="m 44736905,9530000 h 1300000"
       id="path262" />
    <path
       d="m 44436905,11930000 h 400000"
       id="path264" />
    <path
       d="m 42036905,9530000 2400000,2400000"
       id="path266" />
    <path
       d="m 40736905,9530000 h 1300000"
       id="path268" />
    <path
       d="m 23561905,13780000 975000,975000"
       id="path270" />
    <path
       d="m 20436905,13780000 h 3125000"
       id="path272" />
    <path
       d="M 44636905,38530000 V 37530000"
       id="path274" />
    <path
       d="m 44137386,39029519 499519,-499519"
       id="path276" />
    <path
       d="M 29436424,39029519 H 44137386"
       id="path278" />
    <path
       d="m 23936905,33530000 5499519,5499519"
       id="path280" />
    <path
       d="m 18836905,33530000 h 5100000"
       id="path282" />
    <path
       d="m 15636905,30330000 3200000,3200000"
       id="path284" />
    <path
       d="m 17726905,11240000 -2090000,2090000"
       id="path286" />
    <path
       d="M 15636905,13330000 V 30330000"
       id="path288" />
    <path
       d="M 20436905,11240000 H 17726905"
       id="path290" />
    <path
       d="M 26787883,35130000 H 43786905"
       id="path292" />
    <path
       d="m 26436905,34779022 350978,350978"
       id="path294" />
    <path
       d="m 26436905,33280978 v 1498044"
       id="path296" />
    <path
       d="m 25185927,32030000 1250978,1250978"
       id="path298" />
    <path
       d="m 21336905,32030000 h 3849022"
       id="path300" />
    <path
       d="m 16936905,27630000 4400000,4400000"
       id="path302" />
    <path
       d="M 16936905,14830000 V 27630000"
       id="path304" />
    <path
       d="m 17986905,13780000 -1050000,1050000"
       id="path306" />
    <path
       d="M 20436905,13780000 H 17986905"
       id="path308" />
    <path
       d="m 40366905,26055000 v 1705000"
       id="path310" />
    <path
       d="m 40366905,27760000 4470000,4470000"
       id="path312" />
  </g>
  <g
     style="fill:#000000;fill-opacity:0;stroke:#000000;stroke-width:400000;stroke-linecap:round;stroke-linejoin:round;stroke-opacity:1"
     id="g318"
     transform="translate(-13136905,-30000)">
    <path
       d="M 23936905,33530000 H 22236905"
       id="path316" />
  </g>
  <g
     style="fill:#000000;fill-opacity:0;stroke:#000000;stroke-width:300000;stroke-linecap:round;stroke-linejoin:round;stroke-opacity:1"
     id="g328"
     transform="translate(-13136905,-30000)">
    <path
       d="M 50636905,27230000 V 26005000"
       id="path320" />
    <path
       d="m 45636905,32230000 5000000,-5000000"
       id="path322" />
    <path
       d="m 44836905,32230000 h 800000"
       id="path324" />
    <path
       d="m 41436905,6230000 h -200000"
       id="path326" />
  </g>
  <g
     style="fill:#000000;fill-opacity:0;stroke:#000000;stroke-width:400000;stroke-linecap:round;stroke-linejoin:round;stroke-opacity:1"
     id="g332"
     transform="translate(-13136905,-30000)">
    <path
       d="M 44736905,9530000 41436905,6230000"
       id="path330" />
  </g>
  <g
     style="fill:#000000;fill-opacity:0;stroke:#000000;stroke-width:300000;stroke-linecap:round;stroke-linejoin:round;stroke-opacity:1"
     id="g348"
     transform="translate(-13136905,-30000)">
    <path
       d="m 40836905,12430000 v -500000"
       id="path334" />
    <path
       d="M 42236905,13830000 40836905,12430000"
       id="path336" />
    <path
       d="M 50436905,13830000 H 42236905"
       id="path338" />
    <path
       d="M 54446905,17840000 50436905,13830000"
       id="path340" />
    <path
       d="M 54446905,21055000 V 17840000"
       id="path342" />
    <path
       d="m 38011905,14755000 2825000,-2825000"
       id="path344" />
    <path
       d="m 30336905,14755000 h 7675000"
       id="path346" />
  </g>
  <g
     style="fill:#000000;fill-opacity:0;stroke:#000000;stroke-width:400000;stroke-linecap:round;stroke-linejoin:round;stroke-opacity:1"
     id="g362"
     transform="translate(-13136905,-30000)">
    <path
       d="M 40236905,7230000 41236905,6230000"
       id="path350" />
    <path
       d="m 36236905,7230000 h 4000000"
       id="path352" />
    <path
       d="m 52586905,11429022 -450489,450489"
       id="path354" />
    <path
       d="m 52586905,9680000 450000,-450000"
       id="path356" />
    <path
       d="m 52586416,9680489 489,-489"
       id="path358" />
    <path
       d="m 52586905,9680000 v 1749022"
       id="path360" />
  </g>
  <g
     style="fill:#000000;fill-opacity:0;stroke:#000000;stroke-width:300000;stroke-linecap:round;stroke-linejoin:round;stroke-opacity:1"
     id="g370"
     transform="translate(-13136905,-30000)">
    <path
       d="m 56336905,18530000 h 4800000"
       id="path364" />
    <path
       d="m 54636905,16830000 1700000,1700000"
       id="path366" />
    <path
       d="m 54636905,10530000 v 6300000"
       id="path368" />
  </g>
  <g
     style="fill:#000000;fill-opacity:0;stroke:#000000;stroke-width:400000;stroke-linecap:round;stroke-linejoin:round;stroke-opacity:1"
     id="g390"
     transform="translate(-13136905,-30000)">
    <path
       d="m 48736905,10530000 h 1900000"
       id="path372" />
    <path
       d="m 48636905,10630000 100000,-100000"
       id="path374" />
    <path
       d="m 51261416,33705489 v 49022"
       id="path376" />
    <path
       d="m 54936905,30030000 -3675489,3675489"
       id="path378" />
    <path
       d="m 51261416,33754511 -3775489,3775489"
       id="path380" />
    <path
       d="M 47436905,37530000 H 44636905"
       id="path382" />
    <path
       d="m 54936905,28330000 v 1700000"
       id="path384" />
    <path
       d="M 61136905,25530000 H 57736905"
       id="path386" />
    <path
       d="M 47485927,37530000 H 44636905"
       id="path388" />
  </g>
  <g
     style="fill:#000000;fill-opacity:0;stroke:#000000;stroke-width:300000;stroke-linecap:round;stroke-linejoin:round;stroke-opacity:1"
     id="g418"
     transform="translate(-13136905,-30000)">
    <path
       d="M 51906905,30260000 V 26005000"
       id="path392" />
    <path
       d="m 49936905,32230000 1970000,-1970000"
       id="path394" />
    <path
       d="m 45486905,35130000 h 1550000"
       id="path396" />
    <path
       d="m 47036905,35130000 2900000,-2900000"
       id="path398" />
    <path
       d="m 42956905,26005000 -50000,50000"
       id="path400" />
    <path
       d="M 46826905,26005000 H 42956905"
       id="path402" />
    <path
       d="m 46776905,21005000 50000,50000"
       id="path404" />
    <path
       d="m 42906905,21005000 h 3870000"
       id="path406" />
    <path
       d="M 46621905,23230000 H 41516905"
       id="path408" />
    <path
       d="m 48096905,21755000 -1475000,1475000"
       id="path410" />
    <path
       d="M 41516905,23230000 40366905,22080000"
       id="path412" />
    <path
       d="M 40366905,22080000 V 21005000"
       id="path414" />
    <path
       d="m 48096905,21055000 v 700000"
       id="path416" />
  </g>
  <g
     style="fill:#000000;fill-opacity:0;stroke:#000000;stroke-width:400000;stroke-linecap:round;stroke-linejoin:round;stroke-opacity:1"
     id="g438"
     transform="translate(-13136905,-30000)">
    <path
       d="M 27137883,3230000 24737394,5630489"
       id="path420" />
    <path
       d="M 51836905,3230000 H 27137883"
       id="path422" />
    <path
       d="M 53036905,4430000 51836905,3230000"
       id="path424" />
    <path
       d="M 53036905,9230000 V 4430000"
       id="path426" />
    <path
       d="M 24737394,5630489 V 7229511"
       id="path428" />
    <path
       d="m 24737394,5480489 v 150000"
       id="path430" />
    <path
       d="M 29536905,4930000 27236905,7230000"
       id="path432" />
    <path
       d="M 42936905,4930000 H 29536905"
       id="path434" />
    <path
       d="M 45236905,7230000 42936905,4930000"
       id="path436" />
  </g>
  <g
     style="fill:#000000;fill-opacity:0;stroke:#000000;stroke-width:300000;stroke-linecap:round;stroke-linejoin:round;stroke-opacity:1"
     id="g486"
     transform="translate(-13136905,-30000)">
    <path
       d="m 29012883,26055000 -1825978,1825978"
       id="path440" />
    <path
       d="M 40366905,26055000 H 29012883"
       id="path442" />
    <path
       d="m 30336905,18005000 h 1199022"
       id="path444" />
    <path
       d="m 30336905,19305000 v -650000"
       id="path446" />
    <path
       d="M 30336905,20830000 V 19305000"
       id="path448" />
    <path
       d="M 28336905,23980000 V 22830000"
       id="path450" />
    <path
       d="m 28336905,22830000 2000000,-2000000"
       id="path452" />
    <path
       d="m 32586905,29480000 2850000,2850000"
       id="path454" />
    <path
       d="m 35436905,32330000 v 1200000"
       id="path456" />
    <path
       d="m 29496905,29480000 h 3090000"
       id="path458" />
    <path
       d="m 27186905,27880978 v 1599022"
       id="path460" />
    <path
       d="m 25736416,26430489 1450489,1450489"
       id="path462" />
    <path
       d="m 25736416,18655489 v 7775000"
       id="path464" />
    <path
       d="m 25735927,18655000 489,489"
       id="path466" />
    <path
       d="m 24536905,18655000 h 1199022"
       id="path468" />
    <path
       d="m 27936905,33530000 h 3500000"
       id="path470" />
    <path
       d="m 24536905,30130000 3400000,3400000"
       id="path472" />
    <path
       d="M 24536905,19305000 V 30130000"
       id="path474" />
    <path
       d="m 17538354,16628551 573551,-573551"
       id="path476" />
    <path
       d="M 17538354,24790471 V 16628551"
       id="path478" />
    <path
       d="M 19977883,27230000 17538354,24790471"
       id="path480" />
    <path
       d="m 20436905,27230000 h -459022"
       id="path482" />
    <path
       d="m 18111905,16055000 h 6425000"
       id="path484" />
  </g>
  <g
     style="fill:#000000;fill-opacity:0;stroke:#000000;stroke-width:400000;stroke-linecap:round;stroke-linejoin:round;stroke-opacity:1"
     id="g490"
     transform="translate(-13136905,-30000)">
    <path
       d="m 24737394,7229511 -4300489,4300489"
       id="path488" />
  </g>
  <g
     style="fill:#000000;fill-opacity:0;stroke:#000000;stroke-width:300000;stroke-linecap:round;stroke-linejoin:round;stroke-opacity:1"
     id="g532"
     transform="translate(-13136905,-30000)">
    <path
       d="M 24536905,11480000 27236905,8780000"
       id="path492" />
    <path
       d="M 24536905,14755000 V 11480000"
       id="path494" />
    <path
       d="M 18137874,22790969 V 18062159"
       id="path496" />
    <path
       d="M 20036905,24690000 18137874,22790969"
       id="path498" />
    <path
       d="m 18137874,18062159 1357159,-1357159"
       id="path500" />
    <path
       d="m 19495033,16705000 h 5041872"
       id="path502" />
    <path
       d="m 20436905,24690000 h -400000"
       id="path504" />
    <path
       d="m 19692883,17355000 h 4844022"
       id="path506" />
    <path
       d="m 18737394,18310489 955489,-955489"
       id="path508" />
    <path
       d="M 18737394,20850489 V 18310489"
       id="path510" />
    <path
       d="M 20036905,22150000 18737394,20850489"
       id="path512" />
    <path
       d="m 20436905,22150000 h -400000"
       id="path514" />
    <path
       d="m 22041905,18005000 h 2495000"
       id="path516" />
    <path
       d="m 20436905,19610000 1605000,-1605000"
       id="path518" />
    <path
       d="m 28411905,18005000 -975000,-975000"
       id="path520" />
    <path
       d="M 30336905,18005000 H 28411905"
       id="path522" />
    <path
       d="m 25811905,18655000 1625000,-1625000"
       id="path524" />
    <path
       d="m 24536905,18655000 h 1275000"
       id="path526" />
    <path
       d="m 25811905,15405000 1625000,1625000"
       id="path528" />
    <path
       d="m 24536905,15405000 h 1275000"
       id="path530" />
  </g>
  <g
     style="fill:#000000;fill-opacity:0;stroke:#000000;stroke-width:400000;stroke-linecap:round;stroke-linejoin:round;stroke-opacity:1"
     id="g570"
     transform="translate(-13136905,-30000)">
    <path
       d="m 35606905,7230000 h 630000"
       id="path534" />
    <path
       d="M 27436905,15400000 35606905,7230000"
       id="path536" />
    <path
       d="M 27436905,17030000 V 15400000"
       id="path538" />
    <path
       d="M 27236905,8780000 V 7230000"
       id="path540" />
    <path
       d="m 51906905,26005000 v 1369270"
       id="path542" />
    <path
       d="m 57123124,21030000 h 3513781"
       id="path544" />
    <path
       d="m 55598613,22554511 1524511,-1524511"
       id="path546" />
    <path
       d="m 49623124,22554511 h 5975489"
       id="path548" />
    <path
       d="m 48096905,24080730 1526219,-1526219"
       id="path550" />
    <path
       d="M 48096905,26005000 V 24080730"
       id="path552" />
    <path
       d="m 49366905,23800000 v 2205000"
       id="path554" />
    <path
       d="m 49636905,23530000 -270000,270000"
       id="path556" />
    <path
       d="M 55636905,23530000 H 49636905"
       id="path558" />
    <path
       d="m 56112394,23054511 -475489,475489"
       id="path560" />
    <path
       d="M 60636905,23030000 H 56112394"
       id="path562" />
    <path
       d="m 56112394,23030000 v 24511"
       id="path564" />
    <path
       d="M 60636905,21030000 H 56770927"
       id="path566" />
    <path
       d="M 48636905,10630000 45236905,7230000"
       id="path568" />
  </g>
  <g
     id="g572"
     transform="translate(-13136905,-30000)"
     style="fill:#000000;fill-opacity:0;stroke:#000000;stroke-width:0;stroke-linecap:round;stroke-linejoin:round;stroke-opacity:1" />
  <g
     style="fill:#ffffff;fill-opacity:0;stroke:#ffffff;stroke-width:400000;stroke-linecap:round;stroke-linejoin:round;stroke-opacity:1"
     id="g576"
     transform="translate(-13136905,-30000)" />
  <g
     style="fill:#000000;fill-opacity:0;stroke:#000000;stroke-width:400000;stroke-linecap:round;stroke-linejoin:round;stroke-opacity:1"
     id="g578"
     transform="translate(-13136905,-30000)" />
  <metadata
     id="metadata660">
    <rdf:RDF>
      <cc:Work
         rdf:about="">
        <dc:title>SVG Picture created as DRV8428P-D11C-NEMA17-F_Cu.svg date 2022/01/25 16:10:18 </dc:title>
      </cc:Work>
    </rdf:RDF>
  </metadata>
</svg>
