<?xml version="1.0" standalone="no"?>
 <!DOCTYPE svg PUBLIC "-//W3C//DTD SVG 1.1//EN" 
 "http://www.w3.org/Graphics/SVG/1.1/DTD/svg11.dtd"> 
<svg
  xmlns:svg="http://www.w3.org/2000/svg"
  xmlns="http://www.w3.org/2000/svg"
  xmlns:xlink="http://www.w3.org/1999/xlink"
  version="1.1"
  width="6.761480cm" height="5.130800cm" viewBox="0 0 67614800 51308000">
<title>SVG Picture created as DRV8428P-D11C-NEMA17-Edge_Cuts.svg date 2022/01/25 16:10:29 </title>
  <desc>Picture generated by PCBNEW </desc>
<g style="fill:#000000; fill-opacity:1.000000;stroke:#000000; stroke-opacity:1.000000;
stroke-linecap:round; stroke-linejoin:round;"
 transform="translate(0 0) scale(1 1)">
</g>
<g style="fill:#000000; fill-opacity:0.0; 
stroke:#000000; stroke-width:0.000000; stroke-opacity:1; 
stroke-linecap:round; stroke-linejoin:round;">
</g>
<g style="fill:#000000; fill-opacity:0.0; 
stroke:#000000; stroke-width:1000000.000000; stroke-opacity:1; 
stroke-linecap:round; stroke-linejoin:round;">
<path d="M56636905 28430000
L67136905 28430000
" />
<path d="M67136905 15730000
L67136905 28430000
" />
<path d="M56536905 15630000
L67036905 15630000
" />
<path d="M56636905 4030000
L56536905 15430000
" />
<path d="M56636905 40030000
L53136905 43530000
" />
<path d="M56636905 4030000
L53136905 530000
" />
<path d="M17136905 530000
L13636905 4030000
" />
<path d="M13636905 40030000
L17136905 43530000
" />
<circle cx="49936905.000000" cy="7230000.000000" r="1500000.000000" /> 
<circle cx="49936905.000000" cy="38230000.000000" r="1500000.000000" /> 
<circle cx="18936905.000000" cy="7230000.000000" r="1500000.000000" /> 
<circle cx="18936905.000000" cy="38130000.000000" r="1500000.000000" /> 
<path d="M13636905 40030000
L13636905 4030000
" />
<path d="M53136905 43530000
L17136905 43530000
" />
<path d="M56636905 28430000
L56636905 40030000
" />
<path d="M17136905 530000
L53136905 530000
" />
<circle cx="35136905.000000" cy="22030000.000000" r="3000000.000000" /> 
<g >
</g>
<g >
</g>
<g >
</g>
<g >
</g>
<g >
</g>
<g >
</g>
<g >
</g>
<g >
</g>
<g >
</g>
<g >
</g>
<g >
</g>
<g >
</g>
<g >
</g>
<g >
</g>
<g >
</g>
<g >
</g>
<g >
</g>
<g >
</g>
<g >
</g>
</g> 
</svg>
